<svg width="48" height="48" viewBox="0 0 48 48" fill="none" xmlns="http://www.w3.org/2000/svg">
<path d="M24 0.0878906C10.7453 0.0878906 0 10.8332 0 24.0879C0 35.3429 7.74912 44.7874 18.2026 47.3813V31.4223H13.2538V24.0879H18.2026V20.9276C18.2026 12.7589 21.8995 8.97269 29.9194 8.97269C31.44 8.97269 34.0637 9.27125 35.137 9.56885V16.2169C34.5706 16.1573 33.5866 16.1276 32.3645 16.1276C28.4294 16.1276 26.9088 17.6185 26.9088 21.494V24.0879H34.7482L33.4013 31.4223H26.9088V47.9122C38.7926 46.477 48.001 36.3586 48.001 24.0879C48 10.8332 37.2547 0.0878906 24 0.0878906Z" fill="white"/>
</svg>
