<svg width="48" height="48" viewBox="0 0 48 48" fill="none" xmlns="http://www.w3.org/2000/svg">
<path d="M24.001 4.32676C30.4135 4.32676 31.1729 4.35488 33.6947 4.46738C36.0385 4.57051 37.3041 4.96426 38.1479 5.29238C39.2635 5.72363 40.0697 6.24863 40.9041 7.08301C41.7479 7.92676 42.2635 8.72363 42.6947 9.83926C43.0229 10.683 43.4166 11.958 43.5197 14.2924C43.6322 16.8236 43.6604 17.583 43.6604 23.9861C43.6604 30.3986 43.6322 31.158 43.5197 33.6799C43.4166 36.0236 43.0229 37.2893 42.6947 38.133C42.2635 39.2486 41.7385 40.0549 40.9041 40.8893C40.0604 41.733 39.2635 42.2486 38.1479 42.6799C37.3041 43.008 36.0291 43.4018 33.6947 43.5049C31.1635 43.6174 30.4041 43.6455 24.001 43.6455C17.5885 43.6455 16.8291 43.6174 14.3072 43.5049C11.9635 43.4018 10.6979 43.008 9.8541 42.6799C8.73848 42.2486 7.93223 41.7236 7.09785 40.8893C6.2541 40.0455 5.73848 39.2486 5.30723 38.133C4.9791 37.2893 4.58535 36.0143 4.48223 33.6799C4.36973 31.1486 4.3416 30.3893 4.3416 23.9861C4.3416 17.5736 4.36973 16.8143 4.48223 14.2924C4.58535 11.9486 4.9791 10.683 5.30723 9.83926C5.73848 8.72363 6.26348 7.91738 7.09785 7.08301C7.9416 6.23926 8.73848 5.72363 9.8541 5.29238C10.6979 4.96426 11.9729 4.57051 14.3072 4.46738C16.8291 4.35488 17.5885 4.32676 24.001 4.32676ZM24.001 0.00488281C17.4854 0.00488281 16.6697 0.0330078 14.1104 0.145508C11.5604 0.258008 9.80723 0.670508 8.28848 1.26113C6.7041 1.87988 5.36348 2.69551 4.03223 4.03613C2.6916 5.36738 1.87598 6.70801 1.25723 8.28301C0.666602 9.81113 0.254102 11.5549 0.141602 14.1049C0.0291016 16.6736 0.000976562 17.4893 0.000976562 24.0049C0.000976562 30.5205 0.0291016 31.3361 0.141602 33.8955C0.254102 36.4455 0.666602 38.1986 1.25723 39.7174C1.87598 41.3018 2.6916 42.6424 4.03223 43.9736C5.36348 45.3049 6.7041 46.1299 8.2791 46.7393C9.80723 47.3299 11.551 47.7424 14.101 47.8549C16.6604 47.9674 17.476 47.9955 23.9916 47.9955C30.5072 47.9955 31.3229 47.9674 33.8822 47.8549C36.4322 47.7424 38.1854 47.3299 39.7041 46.7393C41.2791 46.1299 42.6197 45.3049 43.951 43.9736C45.2822 42.6424 46.1072 41.3018 46.7166 39.7268C47.3072 38.1986 47.7197 36.4549 47.8322 33.9049C47.9447 31.3455 47.9729 30.5299 47.9729 24.0143C47.9729 17.4986 47.9447 16.683 47.8322 14.1236C47.7197 11.5736 47.3072 9.82051 46.7166 8.30176C46.126 6.70801 45.3104 5.36738 43.9697 4.03613C42.6385 2.70488 41.2979 1.87988 39.7229 1.27051C38.1947 0.679883 36.451 0.267383 33.901 0.154883C31.3322 0.0330078 30.5166 0.00488281 24.001 0.00488281Z" fill="white"/>
<path d="M24.001 11.6768C17.1947 11.6768 11.6729 17.1986 11.6729 24.0049C11.6729 30.8111 17.1947 36.333 24.001 36.333C30.8072 36.333 36.3291 30.8111 36.3291 24.0049C36.3291 17.1986 30.8072 11.6768 24.001 11.6768ZM24.001 32.0018C19.5854 32.0018 16.0041 28.4205 16.0041 24.0049C16.0041 19.5893 19.5854 16.008 24.001 16.008C28.4166 16.008 31.9979 19.5893 31.9979 24.0049C31.9979 28.4205 28.4166 32.0018 24.001 32.0018Z" fill="white"/>
<path d="M39.6947 11.1892C39.6947 12.7829 38.401 14.0673 36.8166 14.0673C35.2229 14.0673 33.9385 12.7735 33.9385 11.1892C33.9385 9.59541 35.2322 8.31104 36.8166 8.31104C38.401 8.31104 39.6947 9.60479 39.6947 11.1892Z" fill="white"/>
</svg>
