<svg width="48" height="48" viewBox="0 0 48 48" fill="none" xmlns="http://www.w3.org/2000/svg">
<path d="M44.4479 0H3.54473C1.58535 0 0.000976562 1.54688 0.000976562 3.45938V44.5312C0.000976562 46.4437 1.58535 48 3.54473 48H44.4479C46.4072 48 48.001 46.4438 48.001 44.5406V3.45938C48.001 1.54688 46.4072 0 44.4479 0ZM14.2416 40.9031H7.1166V17.9906H14.2416V40.9031ZM10.6791 14.8688C8.3916 14.8688 6.54473 13.0219 6.54473 10.7437C6.54473 8.46562 8.3916 6.61875 10.6791 6.61875C12.9572 6.61875 14.8041 8.46562 14.8041 10.7437C14.8041 13.0125 12.9572 14.8688 10.6791 14.8688ZM40.9041 40.9031H33.7885V29.7656C33.7885 27.1125 33.7416 23.6906 30.0854 23.6906C26.3822 23.6906 25.8197 26.5875 25.8197 29.5781V40.9031H18.7135V17.9906H25.5385V21.1219H25.6322C26.5791 19.3219 28.9041 17.4188 32.3635 17.4188C39.5729 17.4188 40.9041 22.1625 40.9041 28.3313V40.9031Z" fill="white"/>
</svg>
