<svg width="363" height="12" viewBox="0 0 363 12" fill="none" xmlns="http://www.w3.org/2000/svg">
<path d="M295.496 1.27711C297.099 2.66618 298.181 3.59768 299.552 4.78173C303.66 2.24387 307.476 -0.455697 312.304 4.86348C313.32 5.98965 319.828 4.24753 323.482 3.87524C326.659 4.63757 330.095 5.96952 333.609 6.19828C343.337 6.82582 353.102 6.96989 362.861 7.31066C362.873 8.08369 362.886 8.87182 362.898 9.64485C358.557 9.75076 354.23 9.99353 349.875 9.93232C306.855 9.33897 263.812 8.2752 220.794 8.19697C175.608 8.1036 130.434 8.79841 85.2623 9.43268C60.6157 9.7839 35.9876 10.7417 11.353 11.3206C9.02296 11.3756 6.3448 11.1457 4.40525 10.2751C2.66127 9.50216 0.616926 7.64321 0.662365 6.34201C0.702521 5.19211 3.35595 3.28515 5.03067 3.19215C23.154 2.17382 41.2804 1.06473 59.4584 0.760296C78.3528 0.450588 97.2762 1.02053 116.195 1.15099C133.741 1.27895 151.306 1.43786 168.839 1.36843C183.108 1.32136 197.358 0.682776 211.62 0.832395C217.149 0.889162 222.636 2.74713 228.214 3.12371C230.954 3.31027 235.815 5.9796 236.567 0.976477C236.594 0.780478 238.019 0.436341 238.43 0.632479C243.463 2.94421 248.981 -0.0897058 253.569 1.31268C258.668 2.88442 263.021 2.43052 267.884 1.64597C269.485 1.38375 271.467 2.74055 273.276 2.8037C275.462 2.88005 277.635 2.18339 279.846 2.12426C281.719 2.06845 284.152 1.91104 285.378 2.69615C289.389 5.21456 292.353 4.68184 295.456 1.27572L295.496 1.27711Z" fill="#1778F2"/>
</svg>
