<svg width="118" height="42" viewBox="0 0 118 42" fill="none" xmlns="http://www.w3.org/2000/svg">
<path d="M15.5329 31.5417C16.8198 31.152 18.1067 30.7847 19.386 30.3724C21.7341 29.6229 23.9843 30.6273 24.6466 32.741C25.2787 34.7798 24.2251 36.3014 21.5083 36.9535C18.0314 37.7855 14.4943 38.3926 11.025 39.2546C9.1661 39.7193 7.44269 40.7462 5.5763 41.0835C4.16147 41.3459 2.2951 41.3908 1.24149 40.6638C0.345932 40.0491 -0.0604706 38.1528 0.00726318 36.8561C0.172829 33.4831 0.699646 30.1176 1.12861 26.7596C1.2415 25.8601 1.27912 24.7958 1.78335 24.1362C2.52087 23.1618 3.64973 22.4872 4.6055 21.6777C5.48602 22.9144 7.00622 24.0912 7.12663 25.4029C7.36745 28.0039 6.83311 30.6723 6.61486 33.4756C8.39094 33.5355 9.4897 33.3856 9.15856 31.2869C8.87259 29.443 9.67032 27.9814 11.2583 26.8496C19.4764 20.9806 27.3107 14.4745 35.9728 9.36254C42.0235 5.79468 49.1278 3.86832 55.916 1.68712C59.438 0.555302 63.2988 -0.0218544 67.0014 0.00063324C73.895 0.0456047 79.7274 2.30925 81.7368 10.0296C87.4188 8.86782 92.89 7.7435 98.3687 6.64167C103.441 5.62228 108.521 4.82026 113.593 6.68664C113.759 6.7466 113.985 6.68663 114.135 6.76908C115.934 7.81095 118.59 8.68044 117.883 11.1764C117.115 13.8748 114.526 13.0878 112.479 12.4882C106.73 10.7942 101.168 12.4057 95.5767 13.4026C91.8815 14.0622 88.2315 15.0216 84.5214 15.5688C82.5722 15.8536 81.8572 16.7531 81.6766 18.5445C80.7284 27.9964 75.1367 34.4575 67.6486 39.5245C64.2696 41.8106 60.2132 42.1479 56.2471 41.953C52.251 41.7656 50.1287 38.0553 50.7007 34.1727C52.2811 23.4166 60.5519 18.9718 68.8528 14.5119C71.1632 13.2677 73.6617 12.3682 76.1151 11.2964C75.4227 8.11827 73.752 6.43928 70.6966 6.00454C64.1266 5.0676 57.8576 6.29686 51.7317 8.48555C44.0855 11.2139 36.6275 14.377 30.1178 19.3316C25.0981 23.1468 20.2289 27.1569 15.2996 31.077C15.3824 31.2269 15.4651 31.3768 15.5479 31.5267L15.5329 31.5417ZM76.3333 18.3197C69.0409 19.8937 55.5999 28.1388 56.7664 36.8111C64.2244 38.7749 75.8291 27.4717 76.3333 18.3197Z" fill="#222222"/>
</svg>
